<?xml version="1.0" encoding="UTF-8" standalone="no"?>
<svg xmlns:dc="http://purl.org/dc/elements/1.1/" fill="#94399a" xmlns:cc="http://creativecommons.org/ns#" xmlns:rdf="http://www.w3.org/1999/02/22-rdf-syntax-ns#" xmlns:svg="http://www.w3.org/2000/svg" xmlns="http://www.w3.org/2000/svg" xmlns:sodipodi="http://sodipodi.sourceforge.net/DTD/sodipodi-0.dtd" xmlns:inkscape="http://www.inkscape.org/namespaces/inkscape" width="32px" height="32px" viewBox="0 0 32 32.000001" id="svg2" version="1.1" inkscape:version="0.91 r13725" sodipodi:docname="18 product bill invoice purchase receipt document file.svg">
  <defs id="defs4"/>
  <sodipodi:namedview id="base" pagecolor="#ffffff"  bordercolor="#666666" borderopacity="1.0" inkscape:pageopacity="0.0" inkscape:pageshadow="2" inkscape:zoom="15.839192" inkscape:cx="-1.6919516" inkscape:cy="18.853411" inkscape:document-units="px" inkscape:current-layer="layer1" showgrid="true" units="px" inkscape:snap-bbox="true" inkscape:bbox-paths="true" inkscape:bbox-nodes="true" inkscape:snap-bbox-edge-midpoints="true" inkscape:snap-bbox-midpoints="true" inkscape:window-width="1920" inkscape:window-height="1027" inkscape:window-x="-8" inkscape:window-y="-8" inkscape:window-maximized="1" inkscape:snap-global="false">
    <inkscape:grid type="xygrid" id="grid3392"/>
  </sodipodi:namedview>
  
  <g inkscape:label="Layer 1" inkscape:groupmode="layer" id="layer1" transform="translate(0,-1020.3622)" fill="#94399a">
    <path fill="#94399a" style=" color:#000000;font-style:normal;font-variant:normal;font-weight:normal;font-stretch:normal;font-size:medium;line-height:normal;font-family:sans-serif;text-indent:0;text-align:start;text-decoration:none;text-decoration-line:none;text-decoration-style:solid;text-decoration-color:#000000;letter-spacing:normal;word-spacing:normal;text-transform:none;direction:ltr;block-progression:tb;writing-mode:lr-tb;baseline-shift:baseline;text-anchor:start;white-space:normal;clip-rule:nonzero;display:inline;overflow:visible;visibility:visible;opacity:1;isolation:auto;mix-blend-mode:normal;color-interpolation:sRGB;color-interpolation-filters:linearRGB;solid-color:#000000;solid-opacity:1;fill:#000000;fill-opacity:1;fill-rule:nonzero;stroke:none;stroke-width:1;stroke-linecap:round;stroke-linejoin:round;stroke-miterlimit:4;stroke-dasharray:none;stroke-dashoffset:0;stroke-opacity:1;color-rendering:auto;image-rendering:auto;shape-rendering:auto;text-rendering:auto;enable-background:accumulate" d="M 21.074219 5.4902344 L 21.074219 5.5429688 A 0.50005 0.50005 0 0 0 20.865234 5.5 L 20.771484 5.5 L 8 5.5 C 7.1776589 5.5 6.5 6.1777 6.5 7 L 6.5 26 C 6.5 26.8223 7.1778534 27.501353 8 27.501953 L 24 27.501953 C 24.822346 27.501953 25.5 26.824253 25.5 26.001953 L 25.5 10.273438 L 25.5 10.125 A 0.50005 0.50005 0 0 0 25.458984 9.9199219 L 25.503906 9.9199219 L 25.386719 9.8007812 A 0.50005 0.50005 0 0 0 25.308594 9.7246094 L 24.738281 9.1542969 L 21.074219 5.4902344 z M 21.074219 6.4570312 L 21.074219 8.7460938 C 21.074219 9.3883937 21.603878 9.9199219 22.246094 9.9199219 L 23.695312 9.9199219 L 24.541016 9.9199219 A 0.50005 0.50005 0 0 0 24.5 10.125 L 24.5 10.273438 L 24.5 26.001953 C 24.5 26.287453 24.285634 26.501953 24 26.501953 L 8 26.501953 C 7.7141886 26.501753 7.5 26.2855 7.5 26 L 7.5 7 C 7.5 6.7144 7.7143811 6.5 8 6.5 L 20.771484 6.5 L 20.865234 6.5 A 0.50005 0.50005 0 0 0 21.074219 6.4570312 z M 21.970703 7.65625 L 23.335938 9.0214844 L 22.246094 9.0214844 C 22.085684 9.0214844 21.970703 8.9066937 21.970703 8.7460938 L 21.970703 7.65625 z M 14.792969 8 A 0.30040155 0.30040155 0 0 0 14.498047 8.3046875 L 14.498047 10.701172 A 0.30040155 0.30040155 0 1 0 15.097656 10.701172 L 15.097656 8.3046875 A 0.30040155 0.30040155 0 0 0 14.792969 8 z M 15.994141 8 A 0.30040155 0.30040155 0 0 0 15.699219 8.3046875 L 15.699219 10.701172 C 15.699219 10.701172 15.699219 10.703125 15.699219 10.703125 A 0.30040155 0.30040155 0 0 0 15.771484 10.900391 C 15.781091 10.912192 15.791091 10.921464 15.802734 10.931641 A 0.30040155 0.30040155 0 0 0 15.835938 10.957031 C 15.851661 10.966889 15.868221 10.977577 15.886719 10.984375 A 0.30040155 0.30040155 0 0 0 16.003906 11.005859 L 17.197266 11.005859 C 17.366831 11.005859 17.504605 10.870772 17.501953 10.701172 C 17.499353 10.535372 17.363156 10.401697 17.197266 10.404297 L 16.298828 10.404297 L 16.298828 8.3046875 A 0.30040155 0.30040155 0 0 0 15.994141 8 z M 18.396484 8 A 0.30040155 0.30040155 0 0 0 18.101562 8.3046875 L 18.101562 10.701172 A 0.30040155 0.30040155 0 0 0 18.101562 10.703125 A 0.30040155 0.30040155 0 0 0 18.171875 10.898438 C 18.183226 10.912649 18.196673 10.923678 18.210938 10.935547 A 0.30040155 0.30040155 0 0 0 18.212891 10.9375 A 0.30040155 0.30040155 0 0 0 18.261719 10.970703 C 18.269633 10.97464 18.276644 10.979168 18.285156 10.982422 A 0.30040155 0.30040155 0 0 0 18.40625 11.005859 L 19.601562 11.005859 C 19.771128 11.005859 19.908902 10.870772 19.90625 10.701172 C 19.90365 10.535372 19.767452 10.401697 19.601562 10.404297 L 18.703125 10.404297 L 18.703125 8.3046875 A 0.30040155 0.30040155 0 0 0 18.396484 8 z M 12.369141 8.0019531 A 0.30075 0.30075 0 0 0 12.345703 8.0058594 A 0.30040156 0.30040156 0 0 0 12.324219 8.0097656 A 0.30075 0.30075 0 0 0 12.306641 8.015625 A 0.30075 0.30075 0 0 0 12.294922 8.0195312 A 0.30040156 0.30040156 0 0 0 12.25 8.0390625 A 0.30075 0.30075 0 0 0 12.228516 8.0527344 A 0.30040156 0.30040156 0 0 0 12.224609 8.0546875 A 0.30075 0.30075 0 0 0 12.205078 8.0722656 A 0.30040156 0.30040156 0 0 0 12.201172 8.0742188 A 0.30075 0.30075 0 0 0 12.183594 8.0917969 A 0.30040156 0.30040156 0 0 0 12.160156 8.1171875 A 0.30040156 0.30040156 0 0 0 12.154297 8.125 A 0.30075 0.30075 0 0 0 12.144531 8.1386719 A 0.30040156 0.30040156 0 0 0 12.142578 8.1425781 A 0.30075 0.30075 0 0 0 12.130859 8.1660156 A 0.30040156 0.30040156 0 0 0 12.128906 8.1679688 A 0.30040156 0.30040156 0 0 0 12.123047 8.1816406 A 0.30075 0.30075 0 0 0 12.117188 8.1933594 A 0.30040156 0.30040156 0 0 0 12.117188 8.1953125 A 0.30075 0.30075 0 0 0 12.109375 8.2207031 A 0.30040156 0.30040156 0 0 0 12.105469 8.2382812 A 0.30075 0.30075 0 0 0 12.101562 8.25 A 0.30040156 0.30040156 0 0 0 12.101562 8.2539062 A 0.30075 0.30075 0 0 0 12.097656 8.28125 A 0.30040156 0.30040156 0 0 0 12.097656 8.2832031 A 0.30040156 0.30040156 0 0 0 12.097656 8.3066406 A 0.30075 0.30075 0 0 0 12.097656 8.3105469 L 12.097656 9.46875 A 0.30040156 0.30040156 0 0 0 12.097656 9.5429688 L 12.097656 10.664062 A 0.30040156 0.30040156 0 0 0 12.103516 10.769531 A 0.3007815 0.3007815 0 0 0 12.111328 10.798828 A 0.30040156 0.30040156 0 0 0 12.121094 10.826172 A 0.3007815 0.3007815 0 0 0 12.121094 10.828125 A 0.3007815 0.3007815 0 0 0 12.134766 10.853516 A 0.30040156 0.30040156 0 0 0 12.150391 10.878906 A 0.3007815 0.3007815 0 0 0 12.150391 10.880859 A 0.3007815 0.3007815 0 0 0 12.453125 11.005859 L 13 11.005859 A 0.30040156 0.30040156 0 0 0 13.152344 10.974609 C 13.570327 10.897577 13.896484 10.544435 13.896484 10.105469 C 13.896484 9.8734955 13.800512 9.6642363 13.654297 9.5039062 C 13.800512 9.3435762 13.896484 9.1362701 13.896484 8.9042969 C 13.896484 8.4572563 13.558269 8.0969054 13.128906 8.0292969 A 0.30075 0.30075 0 0 0 13.126953 8.0273438 A 0.30075 0.30075 0 0 0 13 8.0019531 L 12.423828 8.0019531 A 0.30040156 0.30040156 0 0 0 12.398438 8.0019531 A 0.30075 0.30075 0 0 0 12.369141 8.0019531 z M 12.699219 8.6035156 L 12.996094 8.6035156 C 13.167715 8.6035156 13.294922 8.7325969 13.294922 8.9042969 C 13.294922 9.0758969 13.167715 9.2050781 12.996094 9.2050781 L 12.996094 9.2089844 L 12.699219 9.2089844 L 12.699219 8.6035156 z M 12.699219 9.8085938 L 13 9.8085938 A 0.30040156 0.30040156 0 0 0 13.005859 9.8085938 C 13.171519 9.8143327 13.294922 9.9377995 13.294922 10.105469 C 13.294922 10.277169 13.167715 10.40625 12.996094 10.40625 L 12.699219 10.40625 L 12.699219 9.8085938 z M 15 12 L 15 13 L 20 13 L 20 12 L 15 12 z M 8.9902344 12.009766 L 8.9902344 12.509766 L 8.9902344 17.009766 L 13.990234 17.009766 L 13.990234 12.009766 L 8.9902344 12.009766 z M 9.9902344 13.009766 L 12.990234 13.009766 L 12.990234 16.009766 L 9.9902344 16.009766 L 9.9902344 13.009766 z M 15 14 L 15 15 L 20 15 L 20 14 L 15 14 z M 15 16 L 15 17 L 23 17 L 23 16 L 15 16 z M 9 18 L 9 19 L 23 19 L 23 18 L 9 18 z M 9 20 L 9 21 L 18 21 L 18 20 L 9 20 z M 19 20 L 19 21 L 23 21 L 23 20 L 19 20 z M 9 22 L 9 23 L 18 23 L 18 22 L 9 22 z M 19 22 L 19 23 L 23 23 L 23 22 L 19 22 z M 17 24 L 17 25 L 23 25 L 23 24 L 17 24 z " transform="translate(0,1020.3622)" id="path20720"/>
  </g>

	
	
	<metadata>
		<rdf:RDF xmlns:rdf="http://www.w3.org/1999/02/22-rdf-syntax-ns#" xmlns:rdfs="http://www.w3.org/2000/01/rdf-schema#" xmlns:dc="http://purl.org/dc/elements/1.1/">
			<rdf:Description about="https://iconscout.com/legal#licenses" dc:title="Product, Bill, Invoice, Purchase, Receipt, Document, File" dc:description="Product, Bill, Invoice, Purchase, Receipt, Document, File" dc:publisher="Iconscout" dc:date="2016-12-14" dc:format="image/svg+xml" dc:language="en">
				<dc:creator>
					<rdf:Bag>
						<rdf:li>Chamestudio</rdf:li>
					</rdf:Bag>
				</dc:creator>
			</rdf:Description>
		</rdf:RDF>
    </metadata></svg>
