<svg xmlns="http://www.w3.org/2000/svg" viewBox="0 0 32 32" fill="#94399a" ><path d="M30.75,11.06c0-.06,0-.12,0-.19a1.17,1.17,0,0,0-.05-.2v0L27.24,3.52a4,4,0,0,0-3.61-2.27H8.37A4,4,0,0,0,4.76,3.52L1.35,10.65v0a1.29,1.29,0,0,0-.05.21c0,.06,0,.12,0,.18V26.75a4,4,0,0,0,4,4h21.5a4,4,0,0,0,4-4V11.06ZM25.43,4.39l2.73,5.69H20.09l-.7-6.83h4.24A2,2,0,0,1,25.43,4.39ZM13.71,12.08h4.48v3.25L16.67,14a1,1,0,0,0-1.32,0l-1.64,1.42Zm3.67-8.83.7,6.83H13.77l.86-6.83ZM6.57,4.39a2,2,0,0,1,1.8-1.14h4.25l-.86,6.83H3.84ZM28.75,26.75a2,2,0,0,1-2,2H5.25a2,2,0,0,1-2-2V12.08h8.46v5.48a1,1,0,0,0,1.65.76L16,16l2.53,2.27a1,1,0,0,0,1.08.16,1,1,0,0,0,.59-.91V12.08h8.56Z"/><path d="M18.64 23.6a1 1 0 0 0 1 1h5.88a1 1 0 1 0 0-2H19.64A1 1 0 0 0 18.64 23.6zM25.52 25.63H15.41a1 1 0 0 0 0 2H25.52a1 1 0 0 0 0-2z"/></svg>