<svg xmlns="http://www.w3.org/2000/svg" viewBox="0 0 64 64"><g data-name="Layer 25"><path fill="#fccb7e" d="M32,1A31,31,0,1,0,63,32,31,31,0,0,0,32,1Zm0,42A11,11,0,1,1,43,32,11,11,0,0,1,32,43Z"/><path fill="#fdd598" d="M32,1c-.5,0-1,.01-1.5.04a31,31,0,0,1,0,61.92c.5.03,1,.04,1.5.04A31,31,0,0,0,32,1Z"/><path d="M32,64A32,32,0,1,1,64,32,32.036,32.036,0,0,1,32,64ZM32,2A30,30,0,1,0,62,32,30.034,30.034,0,0,0,32,2Zm0,42A12,12,0,1,1,44,32,12.013,12.013,0,0,1,32,44Zm0-22A10,10,0,1,0,42,32,10.011,10.011,0,0,0,32,22Z"/><path fill="#f478af" d="M60,32a11.99,11.99,0,0,0-6.13-10.461A10.133,10.133,0,0,0,54,20,10,10,0,0,0,44,10a10.133,10.133,0,0,0-1.539.13,11.991,11.991,0,0,0-20.922,0A10.133,10.133,0,0,0,20,10,10,10,0,0,0,10,20a10.133,10.133,0,0,0,.13,1.539,11.991,11.991,0,0,0,0,20.922A10.133,10.133,0,0,0,10,44,10,10,0,0,0,20,54a10.133,10.133,0,0,0,1.539-.13,11.991,11.991,0,0,0,20.922,0A10.133,10.133,0,0,0,44,54,10,10,0,0,0,54,44a10.133,10.133,0,0,0-.13-1.539A11.992,11.992,0,0,0,60,32ZM32,43A11,11,0,1,1,43,32,11,11,0,0,1,32,43Z"/><path fill="#f693bf" d="M60,32a11.99,11.99,0,0,0-6.13-10.46A9.8,9.8,0,0,0,54,20,10,10,0,0,0,44,10a10.169,10.169,0,0,0-1.47.12A9.993,9.993,0,0,1,51,20a9.8,9.8,0,0,1-.13,1.54,11.989,11.989,0,0,1,0,20.92A9.8,9.8,0,0,1,51,44a9.993,9.993,0,0,1-8.47,9.88A10.169,10.169,0,0,0,44,54,10,10,0,0,0,54,44a9.8,9.8,0,0,0-.13-1.54A11.99,11.99,0,0,0,60,32Z"/><path d="M32,61a13.02,13.02,0,0,1-10.982-6.055A9.881,9.881,0,0,1,20,55,11.013,11.013,0,0,1,9,44a9.852,9.852,0,0,1,.055-1.018,12.987,12.987,0,0,1,0-21.965A9.819,9.819,0,0,1,9,20,11.013,11.013,0,0,1,20,9a9.881,9.881,0,0,1,1.018.055,12.987,12.987,0,0,1,21.964,0A9.881,9.881,0,0,1,44,9,11.013,11.013,0,0,1,55,20a9.819,9.819,0,0,1-.055,1.017,12.987,12.987,0,0,1,0,21.965A9.852,9.852,0,0,1,55,44,11.013,11.013,0,0,1,44,55a9.881,9.881,0,0,1-1.018-.055A13.02,13.02,0,0,1,32,61ZM21.539,52.87a1,1,0,0,1,.871.509,10.991,10.991,0,0,0,19.18,0,1,1,0,0,1,1.023-.5A8.932,8.932,0,0,0,52.881,42.614a1,1,0,0,1,.5-1.025,10.99,10.99,0,0,0,0-19.178,1,1,0,0,1-.5-1.025A8.932,8.932,0,0,0,42.613,11.119a1,1,0,0,1-1.023-.5,10.991,10.991,0,0,0-19.18,0,1,1,0,0,1-1.023.5A8.932,8.932,0,0,0,11.119,21.386a1,1,0,0,1-.5,1.025,10.99,10.99,0,0,0,0,19.178,1,1,0,0,1,.5,1.025A8.932,8.932,0,0,0,21.387,52.881,1.11,1.11,0,0,1,21.539,52.87ZM32,44A12,12,0,1,1,44,32,12.013,12.013,0,0,1,32,44Zm0-22A10,10,0,1,0,42,32,10.011,10.011,0,0,0,32,22Z"/><line x1="31" x2="33" y1="8" y2="8" fill="#d16796"/><path fill="#d16796" d="M33,9H31a1,1,0,0,1,0-2h2a1,1,0,0,1,0,2Z"/><line x1="25" x2="27" y1="12" y2="12" fill="#ed1e79"/><path fill="#d16796" d="M27,13H25a1,1,0,0,1,0-2h2a1,1,0,0,1,0,2Z"/><line x1="37" x2="39" y1="12" y2="12" fill="#ed1e79"/><path fill="#d16796" d="M39,13H37a1,1,0,0,1,0-2h2a1,1,0,0,1,0,2Z"/><line x1="16" x2="18" y1="16" y2="16" fill="#ed1e79"/><path fill="#d16796" d="M18,17H16a1,1,0,0,1,0-2h2a1,1,0,0,1,0,2Z"/><line x1="22" x2="24" y1="20" y2="20" fill="#ed1e79"/><path fill="#d16796" d="M24,21H22a1,1,0,0,1,0-2h2a1,1,0,0,1,0,2Z"/><line x1="48" x2="46" y1="16" y2="16" fill="#ed1e79"/><path fill="#d16796" d="M48,17H46a1,1,0,0,1,0-2h2a1,1,0,0,1,0,2Z"/><line x1="42" x2="40" y1="20" y2="20" fill="#ed1e79"/><path fill="#d16796" d="M42,21H40a1,1,0,0,1,0-2h2a1,1,0,0,1,0,2Z"/><line x1="31" x2="33" y1="16" y2="16" fill="#ed1e79"/><path fill="#d16796" d="M33 17H31a1 1 0 0 1 0-2h2a1 1 0 0 1 0 2zM18 25H16a1 1 0 0 1 0-2h2a1 1 0 0 1 0 2zM12 29H10a1 1 0 0 1 0-2h2a1 1 0 0 1 0 2zM18 33H16a1 1 0 0 1 0-2h2a1 1 0 0 1 0 2z"/><line x1="46" x2="48" y1="24" y2="24" fill="#ed1e79"/><path fill="#d16796" d="M48,25H46a1,1,0,0,1,0-2h2a1,1,0,0,1,0,2Z"/><line x1="52" x2="54" y1="28" y2="28" fill="#ed1e79"/><path fill="#d16796" d="M54,29H52a1,1,0,0,1,0-2h2a1,1,0,0,1,0,2Z"/><line x1="31" x2="33" y1="56" y2="56" fill="#d16796"/><path fill="#d16796" d="M33,57H31a1,1,0,0,1,0-2h2a1,1,0,0,1,0,2Z"/><line x1="25" x2="27" y1="52" y2="52" fill="#ed1e79"/><path fill="#d16796" d="M27,53H25a1,1,0,0,1,0-2h2a1,1,0,0,1,0,2Z"/><line x1="37" x2="39" y1="52" y2="52" fill="#ed1e79"/><path fill="#d16796" d="M39,53H37a1,1,0,0,1,0-2h2a1,1,0,0,1,0,2Z"/><line x1="16" x2="18" y1="48" y2="48" fill="#ed1e79"/><path fill="#d16796" d="M18,49H16a1,1,0,0,1,0-2h2a1,1,0,0,1,0,2Z"/><line x1="22" x2="24" y1="44" y2="44" fill="#ed1e79"/><path fill="#d16796" d="M24,45H22a1,1,0,0,1,0-2h2a1,1,0,0,1,0,2Z"/><line x1="48" x2="46" y1="48" y2="48" fill="#ed1e79"/><path fill="#d16796" d="M48,49H46a1,1,0,0,1,0-2h2a1,1,0,0,1,0,2Z"/><line x1="42" x2="40" y1="44" y2="44" fill="#ed1e79"/><path fill="#d16796" d="M42,45H40a1,1,0,0,1,0-2h2a1,1,0,0,1,0,2Z"/><line x1="31" x2="33" y1="48" y2="48" fill="#ed1e79"/><path fill="#d16796" d="M33 49H31a1 1 0 0 1 0-2h2a1 1 0 0 1 0 2zM18 41H16a1 1 0 0 1 0-2h2a1 1 0 0 1 0 2zM12 37H10a1 1 0 0 1 0-2h2a1 1 0 0 1 0 2z"/><line x1="46" x2="48" y1="40" y2="40" fill="#ed1e79"/><path fill="#d16796" d="M48,41H46a1,1,0,0,1,0-2h2a1,1,0,0,1,0,2Z"/><line x1="52" x2="54" y1="36" y2="36" fill="#ed1e79"/><path fill="#d16796" d="M54,37H52a1,1,0,0,1,0-2h2a1,1,0,0,1,0,2Z"/><line x1="46" x2="48" y1="32" y2="32" fill="#ed1e79"/><path fill="#d16796" d="M48,33H46a1,1,0,0,1,0-2h2a1,1,0,0,1,0,2Z"/></g></svg>