<svg xmlns="http://www.w3.org/2000/svg" viewBox="0 0 32 32" fill="#94399a"><path d="M25,2H7A1,1,0,0,0,7,4H9v7a1,1,0,0,0,.55.89l4,2,1.34.67-1.32,2.67-3.42.5a1,1,0,0,0-.55,1.7l2.47,2.42-.58,3.41a1,1,0,0,0,1.45,1L16,24.7l3.06,1.61a1,1,0,0,0,.47.12,1,1,0,0,0,.58-.19,1,1,0,0,0,.4-1l-.58-3.41,2.47-2.42a1,1,0,0,0-.55-1.7l-3.42-.5-1.32-2.67,1.34-.67,4-2A1,1,0,0,0,23,11V4h2a1,1,0,0,0,0-2ZM17,4v8.38l-1,.5-1-.5V4ZM11,4h2v7.38l-2-1Zm8.56,15.42-1.4,1.36a1,1,0,0,0-.29.89l.33,1.93-1.74-.91a.94.94,0,0,0-.92,0l-1.74.91.33-1.93a1,1,0,0,0-.29-.89l-1.4-1.36,1.94-.29a1,1,0,0,0,.75-.54L16,16.83l.87,1.76a1,1,0,0,0,.75.54Zm1.44-9-2,1V4h2Z" data-name="medal"/></svg>